<mxfile host="app.diagrams.net" modified="2021-12-02T09:19:47.001Z" agent="5.0 (Windows NT 10.0; Win64; x64) AppleWebKit/537.36 (KHTML, like Gecko) Chrome/96.0.4664.45 Safari/537.36" etag="THeI1IARMjIpCmW6gwzM" version="15.8.6" type="github">
  <diagram id="C5RBs43oDa-KdzZeNtuy" name="Page-1">
    <mxGraphModel dx="981" dy="526" grid="1" gridSize="10" guides="1" tooltips="1" connect="1" arrows="1" fold="1" page="1" pageScale="1" pageWidth="827" pageHeight="1169" math="0" shadow="0">
      <root>
        <mxCell id="WIyWlLk6GJQsqaUBKTNV-0" />
        <mxCell id="WIyWlLk6GJQsqaUBKTNV-1" parent="WIyWlLk6GJQsqaUBKTNV-0" />
        <mxCell id="ZtbPcbrUDrgKm9EXgq8O-3" value="телефон" style="swimlane;fontStyle=1;align=center;verticalAlign=top;childLayout=stackLayout;horizontal=1;startSize=26;horizontalStack=0;resizeParent=1;resizeParentMax=0;resizeLast=0;collapsible=1;marginBottom=0;glass=0;" vertex="1" parent="WIyWlLk6GJQsqaUBKTNV-1">
          <mxGeometry x="60" y="221" width="180" height="164" as="geometry" />
        </mxCell>
        <UserObject label="-id телефона" id="ZtbPcbrUDrgKm9EXgq8O-16">
          <mxCell style="text;strokeColor=none;fillColor=none;align=left;verticalAlign=top;spacingLeft=4;spacingRight=4;overflow=hidden;rotatable=0;points=[[0,0.5],[1,0.5]];portConstraint=eastwest;glass=0;" vertex="1" parent="ZtbPcbrUDrgKm9EXgq8O-3">
            <mxGeometry y="26" width="180" height="26" as="geometry" />
          </mxCell>
        </UserObject>
        <mxCell id="ZtbPcbrUDrgKm9EXgq8O-32" value="+id экрана телефона" style="text;strokeColor=none;fillColor=none;align=left;verticalAlign=top;spacingLeft=4;spacingRight=4;overflow=hidden;rotatable=0;points=[[0,0.5],[1,0.5]];portConstraint=eastwest;glass=0;" vertex="1" parent="ZtbPcbrUDrgKm9EXgq8O-3">
          <mxGeometry y="52" width="180" height="26" as="geometry" />
        </mxCell>
        <mxCell id="ZtbPcbrUDrgKm9EXgq8O-5" value="" style="line;strokeWidth=1;fillColor=none;align=left;verticalAlign=middle;spacingTop=-1;spacingLeft=3;spacingRight=3;rotatable=0;labelPosition=right;points=[];portConstraint=eastwest;glass=0;" vertex="1" parent="ZtbPcbrUDrgKm9EXgq8O-3">
          <mxGeometry y="78" width="180" height="8" as="geometry" />
        </mxCell>
        <mxCell id="ZtbPcbrUDrgKm9EXgq8O-6" value="+запуск приложения TV()" style="text;strokeColor=none;fillColor=none;align=left;verticalAlign=top;spacingLeft=4;spacingRight=4;overflow=hidden;rotatable=0;points=[[0,0.5],[1,0.5]];portConstraint=eastwest;glass=0;" vertex="1" parent="ZtbPcbrUDrgKm9EXgq8O-3">
          <mxGeometry y="86" width="180" height="26" as="geometry" />
        </mxCell>
        <mxCell id="ZtbPcbrUDrgKm9EXgq8O-52" value="+вывод содержимого на экран()" style="text;strokeColor=none;fillColor=none;align=left;verticalAlign=top;spacingLeft=4;spacingRight=4;overflow=hidden;rotatable=0;points=[[0,0.5],[1,0.5]];portConstraint=eastwest;glass=0;fontSize=11;" vertex="1" parent="ZtbPcbrUDrgKm9EXgq8O-3">
          <mxGeometry y="112" width="180" height="26" as="geometry" />
        </mxCell>
        <mxCell id="ZtbPcbrUDrgKm9EXgq8O-63" value="+завершение действия()" style="text;strokeColor=none;fillColor=none;align=left;verticalAlign=top;spacingLeft=4;spacingRight=4;overflow=hidden;rotatable=0;points=[[0,0.5],[1,0.5]];portConstraint=eastwest;glass=0;fontSize=11;" vertex="1" parent="ZtbPcbrUDrgKm9EXgq8O-3">
          <mxGeometry y="138" width="180" height="26" as="geometry" />
        </mxCell>
        <mxCell id="ZtbPcbrUDrgKm9EXgq8O-17" value="&lt;span style=&quot;font-size: 14pt ; font-family: &amp;#34;arial&amp;#34;&quot;&gt;Информационная система обеспечения функции «Переключение каналов TV» в домашнем кинотеатре.&lt;/span&gt;" style="text;whiteSpace=wrap;html=1;" vertex="1" parent="WIyWlLk6GJQsqaUBKTNV-1">
          <mxGeometry x="40" y="120" width="490" height="30" as="geometry" />
        </mxCell>
        <mxCell id="ZtbPcbrUDrgKm9EXgq8O-19" value="Телевизор" style="swimlane;fontStyle=1;align=center;verticalAlign=top;childLayout=stackLayout;horizontal=1;startSize=26;horizontalStack=0;resizeParent=1;resizeParentMax=0;resizeLast=0;collapsible=1;marginBottom=0;glass=0;fontSize=11;" vertex="1" parent="WIyWlLk6GJQsqaUBKTNV-1">
          <mxGeometry x="680" y="140" width="160" height="182" as="geometry" />
        </mxCell>
        <mxCell id="ZtbPcbrUDrgKm9EXgq8O-20" value="-id телевизора" style="text;strokeColor=none;fillColor=none;align=left;verticalAlign=top;spacingLeft=4;spacingRight=4;overflow=hidden;rotatable=0;points=[[0,0.5],[1,0.5]];portConstraint=eastwest;glass=0;fontSize=11;" vertex="1" parent="ZtbPcbrUDrgKm9EXgq8O-19">
          <mxGeometry y="26" width="160" height="26" as="geometry" />
        </mxCell>
        <mxCell id="ZtbPcbrUDrgKm9EXgq8O-56" value="+id пункта канала" style="text;strokeColor=none;fillColor=none;align=left;verticalAlign=top;spacingLeft=4;spacingRight=4;overflow=hidden;rotatable=0;points=[[0,0.5],[1,0.5]];portConstraint=eastwest;glass=0;fontSize=11;" vertex="1" parent="ZtbPcbrUDrgKm9EXgq8O-19">
          <mxGeometry y="52" width="160" height="26" as="geometry" />
        </mxCell>
        <mxCell id="ZtbPcbrUDrgKm9EXgq8O-21" value="" style="line;strokeWidth=1;fillColor=none;align=left;verticalAlign=middle;spacingTop=-1;spacingLeft=3;spacingRight=3;rotatable=0;labelPosition=right;points=[];portConstraint=eastwest;glass=0;fontSize=11;" vertex="1" parent="ZtbPcbrUDrgKm9EXgq8O-19">
          <mxGeometry y="78" width="160" height="8" as="geometry" />
        </mxCell>
        <mxCell id="ZtbPcbrUDrgKm9EXgq8O-22" value="+вывод на экран()" style="text;strokeColor=none;fillColor=none;align=left;verticalAlign=top;spacingLeft=4;spacingRight=4;overflow=hidden;rotatable=0;points=[[0,0.5],[1,0.5]];portConstraint=eastwest;glass=0;fontSize=11;" vertex="1" parent="ZtbPcbrUDrgKm9EXgq8O-19">
          <mxGeometry y="86" width="160" height="26" as="geometry" />
        </mxCell>
        <mxCell id="ZtbPcbrUDrgKm9EXgq8O-49" value="+получение данных&#xa;от сервера()" style="text;strokeColor=none;fillColor=none;align=left;verticalAlign=top;spacingLeft=4;spacingRight=4;overflow=hidden;rotatable=0;points=[[0,0.5],[1,0.5]];portConstraint=eastwest;glass=0;fontSize=11;" vertex="1" parent="ZtbPcbrUDrgKm9EXgq8O-19">
          <mxGeometry y="112" width="160" height="44" as="geometry" />
        </mxCell>
        <mxCell id="ZtbPcbrUDrgKm9EXgq8O-59" value="+подтверждение действия()" style="text;strokeColor=none;fillColor=none;align=left;verticalAlign=top;spacingLeft=4;spacingRight=4;overflow=hidden;rotatable=0;points=[[0,0.5],[1,0.5]];portConstraint=eastwest;glass=0;fontSize=11;" vertex="1" parent="ZtbPcbrUDrgKm9EXgq8O-19">
          <mxGeometry y="156" width="160" height="26" as="geometry" />
        </mxCell>
        <mxCell id="ZtbPcbrUDrgKm9EXgq8O-23" value="сервер(домашний кинотеатр)" style="swimlane;fontStyle=1;align=center;verticalAlign=top;childLayout=stackLayout;horizontal=1;startSize=26;horizontalStack=0;resizeParent=1;resizeParentMax=0;resizeLast=0;collapsible=1;marginBottom=0;glass=0;fontSize=11;" vertex="1" parent="WIyWlLk6GJQsqaUBKTNV-1">
          <mxGeometry x="520" y="380" width="180" height="238" as="geometry" />
        </mxCell>
        <mxCell id="ZtbPcbrUDrgKm9EXgq8O-24" value="-id сервера" style="text;strokeColor=none;fillColor=none;align=left;verticalAlign=top;spacingLeft=4;spacingRight=4;overflow=hidden;rotatable=0;points=[[0,0.5],[1,0.5]];portConstraint=eastwest;glass=0;fontSize=11;" vertex="1" parent="ZtbPcbrUDrgKm9EXgq8O-23">
          <mxGeometry y="26" width="180" height="26" as="geometry" />
        </mxCell>
        <mxCell id="ZtbPcbrUDrgKm9EXgq8O-50" value="+id пункта канала" style="text;strokeColor=none;fillColor=none;align=left;verticalAlign=top;spacingLeft=4;spacingRight=4;overflow=hidden;rotatable=0;points=[[0,0.5],[1,0.5]];portConstraint=eastwest;glass=0;fontSize=11;" vertex="1" parent="ZtbPcbrUDrgKm9EXgq8O-23">
          <mxGeometry y="52" width="180" height="26" as="geometry" />
        </mxCell>
        <mxCell id="ZtbPcbrUDrgKm9EXgq8O-25" value="" style="line;strokeWidth=1;fillColor=none;align=left;verticalAlign=middle;spacingTop=-1;spacingLeft=3;spacingRight=3;rotatable=0;labelPosition=right;points=[];portConstraint=eastwest;glass=0;fontSize=11;" vertex="1" parent="ZtbPcbrUDrgKm9EXgq8O-23">
          <mxGeometry y="78" width="180" height="8" as="geometry" />
        </mxCell>
        <mxCell id="ZtbPcbrUDrgKm9EXgq8O-58" value="+получение данных()" style="text;strokeColor=none;fillColor=none;align=left;verticalAlign=top;spacingLeft=4;spacingRight=4;overflow=hidden;rotatable=0;points=[[0,0.5],[1,0.5]];portConstraint=eastwest;glass=0;fontSize=11;" vertex="1" parent="ZtbPcbrUDrgKm9EXgq8O-23">
          <mxGeometry y="86" width="180" height="26" as="geometry" />
        </mxCell>
        <mxCell id="ZtbPcbrUDrgKm9EXgq8O-26" value="+обработка данных()" style="text;strokeColor=none;fillColor=none;align=left;verticalAlign=top;spacingLeft=4;spacingRight=4;overflow=hidden;rotatable=0;points=[[0,0.5],[1,0.5]];portConstraint=eastwest;glass=0;fontSize=11;" vertex="1" parent="ZtbPcbrUDrgKm9EXgq8O-23">
          <mxGeometry y="112" width="180" height="26" as="geometry" />
        </mxCell>
        <mxCell id="ZtbPcbrUDrgKm9EXgq8O-38" value="+проверка устройства()" style="text;strokeColor=none;fillColor=none;align=left;verticalAlign=top;spacingLeft=4;spacingRight=4;overflow=hidden;rotatable=0;points=[[0,0.5],[1,0.5]];portConstraint=eastwest;glass=0;fontSize=11;" vertex="1" parent="ZtbPcbrUDrgKm9EXgq8O-23">
          <mxGeometry y="138" width="180" height="26" as="geometry" />
        </mxCell>
        <mxCell id="ZtbPcbrUDrgKm9EXgq8O-48" value="+получение выбранного &#xa;пункта меню()" style="text;strokeColor=none;fillColor=none;align=left;verticalAlign=top;spacingLeft=4;spacingRight=4;overflow=hidden;rotatable=0;points=[[0,0.5],[1,0.5]];portConstraint=eastwest;glass=0;fontSize=11;" vertex="1" parent="ZtbPcbrUDrgKm9EXgq8O-23">
          <mxGeometry y="164" width="180" height="48" as="geometry" />
        </mxCell>
        <mxCell id="ZtbPcbrUDrgKm9EXgq8O-60" value="+feedback()" style="text;strokeColor=none;fillColor=none;align=left;verticalAlign=top;spacingLeft=4;spacingRight=4;overflow=hidden;rotatable=0;points=[[0,0.5],[1,0.5]];portConstraint=eastwest;glass=0;fontSize=11;" vertex="1" parent="ZtbPcbrUDrgKm9EXgq8O-23">
          <mxGeometry y="212" width="180" height="26" as="geometry" />
        </mxCell>
        <object label="экран телефона" id="ZtbPcbrUDrgKm9EXgq8O-27">
          <mxCell style="swimlane;fontStyle=1;align=center;verticalAlign=top;childLayout=stackLayout;horizontal=1;startSize=26;horizontalStack=0;resizeParent=1;resizeParentMax=0;resizeLast=0;collapsible=1;marginBottom=0;glass=0;fontSize=11;" vertex="1" parent="WIyWlLk6GJQsqaUBKTNV-1">
            <mxGeometry x="290" y="410" width="160" height="138" as="geometry" />
          </mxCell>
        </object>
        <mxCell id="ZtbPcbrUDrgKm9EXgq8O-28" value="+id экрана телефона" style="text;strokeColor=none;fillColor=none;align=left;verticalAlign=top;spacingLeft=4;spacingRight=4;overflow=hidden;rotatable=0;points=[[0,0.5],[1,0.5]];portConstraint=eastwest;glass=0;fontSize=11;" vertex="1" parent="ZtbPcbrUDrgKm9EXgq8O-27">
          <mxGeometry y="26" width="160" height="26" as="geometry" />
        </mxCell>
        <mxCell id="ZtbPcbrUDrgKm9EXgq8O-39" value="+id пункта канала" style="text;strokeColor=none;fillColor=none;align=left;verticalAlign=top;spacingLeft=4;spacingRight=4;overflow=hidden;rotatable=0;points=[[0,0.5],[1,0.5]];portConstraint=eastwest;glass=0;fontSize=11;" vertex="1" parent="ZtbPcbrUDrgKm9EXgq8O-27">
          <mxGeometry y="52" width="160" height="26" as="geometry" />
        </mxCell>
        <mxCell id="ZtbPcbrUDrgKm9EXgq8O-29" value="" style="line;strokeWidth=1;fillColor=none;align=left;verticalAlign=middle;spacingTop=-1;spacingLeft=3;spacingRight=3;rotatable=0;labelPosition=right;points=[];portConstraint=eastwest;glass=0;fontSize=11;" vertex="1" parent="ZtbPcbrUDrgKm9EXgq8O-27">
          <mxGeometry y="78" width="160" height="8" as="geometry" />
        </mxCell>
        <mxCell id="ZtbPcbrUDrgKm9EXgq8O-30" value="+выбрать канал()" style="text;strokeColor=none;fillColor=none;align=left;verticalAlign=top;spacingLeft=4;spacingRight=4;overflow=hidden;rotatable=0;points=[[0,0.5],[1,0.5]];portConstraint=eastwest;glass=0;fontSize=11;" vertex="1" parent="ZtbPcbrUDrgKm9EXgq8O-27">
          <mxGeometry y="86" width="160" height="26" as="geometry" />
        </mxCell>
        <mxCell id="ZtbPcbrUDrgKm9EXgq8O-36" value="+передача данных()" style="text;strokeColor=none;fillColor=none;align=left;verticalAlign=top;spacingLeft=4;spacingRight=4;overflow=hidden;rotatable=0;points=[[0,0.5],[1,0.5]];portConstraint=eastwest;glass=0;fontSize=11;" vertex="1" parent="ZtbPcbrUDrgKm9EXgq8O-27">
          <mxGeometry y="112" width="160" height="26" as="geometry" />
        </mxCell>
        <mxCell id="ZtbPcbrUDrgKm9EXgq8O-53" style="edgeStyle=orthogonalEdgeStyle;rounded=0;orthogonalLoop=1;jettySize=auto;html=1;exitX=1;exitY=0.5;exitDx=0;exitDy=0;entryX=0;entryY=0.5;entryDx=0;entryDy=0;fontSize=11;startArrow=ERone;startFill=0;endArrow=open;endFill=0;" edge="1" parent="WIyWlLk6GJQsqaUBKTNV-1" source="ZtbPcbrUDrgKm9EXgq8O-32" target="ZtbPcbrUDrgKm9EXgq8O-28">
          <mxGeometry relative="1" as="geometry" />
        </mxCell>
        <mxCell id="ZtbPcbrUDrgKm9EXgq8O-54" style="edgeStyle=orthogonalEdgeStyle;rounded=0;orthogonalLoop=1;jettySize=auto;html=1;exitX=1;exitY=0.5;exitDx=0;exitDy=0;fontSize=11;startArrow=ERone;startFill=0;endArrow=open;endFill=0;" edge="1" parent="WIyWlLk6GJQsqaUBKTNV-1" source="ZtbPcbrUDrgKm9EXgq8O-39" target="ZtbPcbrUDrgKm9EXgq8O-50">
          <mxGeometry relative="1" as="geometry" />
        </mxCell>
        <mxCell id="ZtbPcbrUDrgKm9EXgq8O-62" style="edgeStyle=orthogonalEdgeStyle;rounded=0;orthogonalLoop=1;jettySize=auto;html=1;exitX=1;exitY=0.5;exitDx=0;exitDy=0;entryX=1;entryY=0.5;entryDx=0;entryDy=0;fontSize=11;startArrow=ERone;startFill=0;endArrow=open;endFill=0;" edge="1" parent="WIyWlLk6GJQsqaUBKTNV-1" source="ZtbPcbrUDrgKm9EXgq8O-59" target="ZtbPcbrUDrgKm9EXgq8O-60">
          <mxGeometry relative="1" as="geometry">
            <Array as="points">
              <mxPoint x="860" y="309" />
              <mxPoint x="860" y="605" />
            </Array>
          </mxGeometry>
        </mxCell>
        <mxCell id="ZtbPcbrUDrgKm9EXgq8O-64" style="edgeStyle=orthogonalEdgeStyle;rounded=0;orthogonalLoop=1;jettySize=auto;html=1;exitX=0;exitY=0.5;exitDx=0;exitDy=0;entryX=0;entryY=0.5;entryDx=0;entryDy=0;fontSize=11;startArrow=ERone;startFill=0;endArrow=open;endFill=0;" edge="1" parent="WIyWlLk6GJQsqaUBKTNV-1" source="ZtbPcbrUDrgKm9EXgq8O-60" target="ZtbPcbrUDrgKm9EXgq8O-63">
          <mxGeometry relative="1" as="geometry" />
        </mxCell>
        <mxCell id="ZtbPcbrUDrgKm9EXgq8O-65" style="edgeStyle=orthogonalEdgeStyle;rounded=0;orthogonalLoop=1;jettySize=auto;html=1;exitX=1;exitY=0.5;exitDx=0;exitDy=0;entryX=1;entryY=0.5;entryDx=0;entryDy=0;fontSize=11;startArrow=ERone;startFill=0;endArrow=open;endFill=0;" edge="1" parent="WIyWlLk6GJQsqaUBKTNV-1" source="ZtbPcbrUDrgKm9EXgq8O-56" target="ZtbPcbrUDrgKm9EXgq8O-50">
          <mxGeometry relative="1" as="geometry">
            <Array as="points">
              <mxPoint x="890" y="205" />
              <mxPoint x="890" y="445" />
            </Array>
          </mxGeometry>
        </mxCell>
      </root>
    </mxGraphModel>
  </diagram>
</mxfile>
